HIERARCHY
ROOT Hips
{
	OFFSET 0.00000 0.00000 0.00000
	CHANNELS 6 Xposition Yposition Zposition Zrotation Yrotation Xrotation 
	JOINT LHipJoint
	{
		OFFSET 0 0 0
		CHANNELS 3 Zrotation Yrotation Xrotation
		JOINT LeftUpLeg
		{
			OFFSET 1.58161 -1.81893 0.78828
			CHANNELS 3 Zrotation Yrotation Xrotation
			JOINT LeftLeg
			{
				OFFSET 2.53374 -6.96141 0.00000
				CHANNELS 3 Zrotation Yrotation Xrotation
				JOINT LeftFoot
				{
					OFFSET 2.63509 -7.23986 0.00000
					CHANNELS 3 Zrotation Yrotation Xrotation
					JOINT LeftToeBase
					{
						OFFSET 0.14115 -0.38781 2.05350
						CHANNELS 3 Zrotation Yrotation Xrotation
						End Site
						{
							OFFSET 0.00000 -0.00000 1.05543
						}
					}
				}
			}
		}
	}
	JOINT RHipJoint
	{
		OFFSET 0 0 0
		CHANNELS 3 Zrotation Yrotation Xrotation
		JOINT RightUpLeg
		{
			OFFSET -1.11138 -1.81893 0.78828
			CHANNELS 3 Zrotation Yrotation Xrotation
			JOINT RightLeg
			{
				OFFSET -2.58392 -7.09926 0.00000
				CHANNELS 3 Zrotation Yrotation Xrotation
				JOINT RightFoot
				{
					OFFSET -2.66423 -7.31992 0.00000
					CHANNELS 3 Zrotation Yrotation Xrotation
					JOINT RightToeBase
					{
						OFFSET -0.18831 -0.51739 2.12114
						CHANNELS 3 Zrotation Yrotation Xrotation
						End Site
						{
							OFFSET -0.00000 -0.00000 1.09845
						}
					}
				}
			}
		}
	}
	JOINT LowerBack
	{
		OFFSET 0 0 0
		CHANNELS 3 Zrotation Yrotation Xrotation
		JOINT Spine
		{
			OFFSET -0.01511 1.97958 -0.08829
			CHANNELS 3 Zrotation Yrotation Xrotation
			JOINT Spine1
			{
				OFFSET 0.08344 1.97334 -0.04330
				CHANNELS 3 Zrotation Yrotation Xrotation
				JOINT Neck
				{
					OFFSET 0 0 0
					CHANNELS 3 Zrotation Yrotation Xrotation
					JOINT Neck1
					{
						OFFSET 0.00559 1.76246 0.31246
						CHANNELS 3 Zrotation Yrotation Xrotation
						JOINT Head
						{
							OFFSET -0.07011 1.80354 -0.30524
							CHANNELS 3 Zrotation Yrotation Xrotation
							End Site
							{
								OFFSET -0.02385 1.83547 -0.13906
							}
						}
					}
				}
				JOINT LeftShoulder
				{
					OFFSET 0 0 0
					CHANNELS 3 Zrotation Yrotation Xrotation
					JOINT LeftArm
					{
						OFFSET 3.20667 1.30156 -0.60240
						CHANNELS 3 Zrotation Yrotation Xrotation
						JOINT LeftForeArm
						{
							OFFSET 4.95663 -0.00000 0.00000
							CHANNELS 3 Zrotation Yrotation Xrotation
							JOINT LeftHand
							{
								OFFSET 3.38177 -0.00000 0.00000
								CHANNELS 3 Zrotation Yrotation Xrotation
								JOINT LeftFingerBase
								{
									OFFSET 0 0 0
									CHANNELS 3 Zrotation Yrotation Xrotation
									JOINT LeftHandIndex1
									{
										OFFSET 0.66291 -0.00000 0.00000
										CHANNELS 3 Zrotation Yrotation Xrotation
										End Site
										{
											OFFSET 0.53445 -0.00000 0.00000
										}
									}
								}
								JOINT LThumb
								{
									OFFSET 0 0 0
									CHANNELS 3 Zrotation Yrotation Xrotation
									End Site
									{
										OFFSET 0.54261 -0.00000 0.54261
									}
								}
							}
						}
					}
				}
				JOINT RightShoulder
				{
					OFFSET 0 0 0
					CHANNELS 3 Zrotation Yrotation Xrotation
					JOINT RightArm
					{
						OFFSET -3.06877 1.34672 -0.60964
						CHANNELS 3 Zrotation Yrotation Xrotation
						JOINT RightForeArm
						{
							OFFSET -5.08365 -0.00000 0.00000
							CHANNELS 3 Zrotation Yrotation Xrotation
							JOINT RightHand
							{
								OFFSET -3.35984 -0.00000 0.00000
								CHANNELS 3 Zrotation Yrotation Xrotation
								JOINT RightFingerBase
								{
									OFFSET 0 0 0
									CHANNELS 3 Zrotation Yrotation Xrotation
									JOINT RightHandIndex1
									{
										OFFSET -0.82076 -0.00000 0.00000
										CHANNELS 3 Zrotation Yrotation Xrotation
										End Site
										{
											OFFSET -0.66172 -0.00000 0.00000
										}
									}
								}
								JOINT RThumb
								{
									OFFSET 0 0 0
									CHANNELS 3 Zrotation Yrotation Xrotation
									End Site
									{
										OFFSET -0.67182 -0.00000 0.67182
									}
								}
							}
						}
					}
				}
			}
		}
	}
}
MOTION
Frames: 11
Frame Time: .0083333
-4.0225 18.121 -7.5586 0 0 0 0 0 0 -21 0 0 0 0 0 0 0 0 0 0 0 0 0 0 21 0 0 0 0 0 0 0 0 0 0 0 0 0 0 0 0 0 0 0 0 0 0 -16 0 0 21 0 0 11 0 0 0 -8 0 0 0 0 0 0 0 0 0 0 0 0 0 0 0 0 0 0 0 0 8 0 0 0 0 0 0 0 0 0 0 0 0 0 0 0 0 0
-4.0225 18.1210 -7.5586 -5.7351 4.2657 7.1975 0.0000 0.0000 0.0000 -9.5425 -2.6191 -10.2562 1.6601 8.1190 23.0762 0.6556 0.3477 -15.4298 0.5284 -4.6580 -12.9358 0.0000 0.0000 0.0000 25.6649 5.4874 -9.2634 -1.3325 -7.3096 20.6359 -0.5425 -1.1420 -14.3730 -0.0447 -1.3643 3.7519 -1.1233 0.0528 -5.9835 4.7066 0.0062 -0.4540 5.5282 -0.0373 2.8901 -1.2621 -3.0477 -21.6630 -2.1121 -3.2946 19.5052 -1.0114 -1.8759 9.7429 0.0000 0.0000 0.0000 -88.9439 -2.0085 19.9976 15.7051 -25.1192 -3.5199 -0.0000 0.0000 -4.8442 10.7082 30.5357 5.4880 -7.1250 0.0000 -0.0000 -23.5738 59.3754 -8.5698 0.0000 0.0000 0.0000 85.0127 3.4176 8.7654 -12.0793 19.9234 -2.1292 0.0000 -0.0000 -7.0439 -21.3677 12.9950 -5.0278 7.1250 -0.0000 -0.0000 4.0980 -16.0852 2.8094
-4.0330 18.1229 -7.5585 -5.6438 4.4185 7.2607 0.0000 0.0000 0.0000 -9.5945 -2.7800 -10.2905 1.6560 8.1095 23.0471 0.6473 0.4060 -15.3543 0.5839 -4.8927 -13.6029 0.0000 0.0000 0.0000 25.6187 5.5020 -9.3576 -1.3404 -7.3305 20.6983 -0.5580 -1.1387 -14.5685 -0.1056 -2.0955 5.7696 -1.1271 0.0569 -5.8573 4.6055 0.0212 -0.5860 5.4216 -0.0235 2.6809 -1.1748 -3.0091 -21.5426 -2.1082 -3.2735 19.4753 -1.0184 -1.8588 9.7091 -0.0000 0.0000 0.0000 -88.8135 -1.8033 20.1741 15.7058 -25.1201 -3.5201 -0.0000 0.0000 -5.2482 11.2842 29.6591 5.6389 -7.1250 0.0000 -0.0000 -22.2998 58.7045 -7.7146 -0.0000 0.0000 0.0000 85.1539 3.1887 8.8969 -12.1727 20.0632 -2.1612 0.0000 -0.0000 -7.1372 -21.4340 12.7460 -4.9503 7.1250 -0.0000 -0.0000 4.0423 -16.3433 2.7484
-4.0410 18.1262 -7.5590 -5.5698 4.5255 7.3125 0.0000 0.0000 0.0000 -9.6418 -2.8871 -10.3511 1.6608 8.1206 23.0808 0.6476 0.4134 -15.3609 0.6197 -5.0378 -14.0164 0.0000 0.0000 0.0000 25.5711 5.4912 -9.4278 -1.3408 -7.3315 20.7011 -0.5700 -1.0703 -14.6886 -0.1615 -2.5893 7.1374 -1.0744 0.0966 -5.7153 4.4805 0.0808 -0.7232 5.2610 0.0135 2.4533 -1.0845 -2.9780 -21.3826 -2.0573 -3.2759 19.4310 -1.0118 -1.8467 9.6636 -0.0000 0.0000 0.0000 -88.6337 -1.5510 20.4586 15.8272 -25.2857 -3.5718 -0.0000 0.0000 -5.4914 11.3798 29.6209 5.6810 -7.1250 0.0000 -0.0000 -22.1731 58.6907 -7.6606 -0.0000 0.0000 0.0000 85.3211 2.9769 8.9563 -12.2437 20.1692 -2.1856 0.0000 -0.0000 -7.3103 -21.5263 12.6756 -4.9467 7.1250 -0.0000 -0.0000 3.9756 -16.4091 2.6972
-4.0478 18.1260 -7.5588 -5.5838 4.5506 7.2801 0.0000 0.0000 0.0000 -9.5995 -2.9090 -10.3344 1.6644 8.1289 23.1061 0.6528 0.3311 -15.3906 0.5618 -4.8009 -13.3415 0.0000 0.0000 0.0000 25.6111 5.4804 -9.4189 -1.3428 -7.3367 20.7167 -0.5633 -1.1182 -14.6261 -0.1524 -2.5152 6.9317 -0.9753 0.1633 -5.6340 4.4150 0.1676 -0.7479 5.1406 0.0598 2.3740 -0.9675 -2.9423 -21.3584 -2.1054 -3.2532 19.4476 -1.0442 -1.8331 9.6621 -0.0000 -0.0000 0.0000 -88.5448 -1.5062 20.5319 15.9476 -25.4496 -3.6234 -0.0000 0.0000 -5.2797 10.8115 30.1941 5.4861 -7.1250 0.0000 -0.0000 -23.1964 59.0882 -8.2620 -0.0000 -0.0000 0.0000 85.3868 2.8874 9.1264 -12.3037 20.2585 -2.2063 0.0000 -0.0000 -7.6062 -21.6525 12.6928 -4.9852 7.1250 -0.0000 -0.0000 3.8889 -16.3786 2.6406
-4.0534 18.1208 -7.5563 -5.5823 4.5255 7.2109 0.0000 0.0000 0.0000 -9.5835 -2.8590 -10.2898 1.6702 8.1424 23.1474 0.6598 0.2740 -15.4504 0.5213 -4.6272 -12.8483 0.0000 0.0000 0.0000 25.6350 5.4750 -9.3375 -1.3416 -7.3336 20.7075 -0.5562 -1.1878 -14.5670 -0.1471 -2.4720 6.8120 -0.9328 0.2338 -5.6675 4.3832 0.2567 -0.6600 5.0910 0.1021 2.4754 -0.8855 -2.9039 -21.5398 -2.1780 -3.2046 19.5689 -1.0813 -1.8134 9.7351 -0.0000 0.0000 0.0000 -88.5102 -1.6028 20.6636 16.0758 -25.6234 -3.6787 -0.0000 0.0000 -5.1326 10.3430 30.9904 5.3684 -7.1250 0.0000 -0.0000 -24.3207 59.7030 -9.0538 -0.0000 0.0000 0.0000 85.3621 2.8823 9.5032 -12.4013 20.4038 -2.2402 0.0000 -0.0000 -8.0307 -21.7712 12.5409 -4.9564 7.1250 -0.0000 -0.0000 3.8005 -16.5288 2.5679
-4.0586 18.1157 -7.5530 -5.6330 4.5539 7.1776 0.0000 0.0000 0.0000 -9.5075 -2.7961 -10.3121 1.6769 8.1579 23.1949 0.6627 0.2452 -15.4740 0.5429 -4.7208 -13.1140 0.0000 0.0000 0.0000 25.7183 5.4705 -9.2762 -1.3373 -7.3223 20.6737 -0.5565 -1.2301 -14.5903 -0.1478 -2.4779 6.8283 -0.8412 0.2918 -5.7142 4.3751 0.3265 -0.6113 5.0367 0.1362 2.5458 -0.8132 -2.8698 -21.6778 -2.2600 -3.1576 19.6870 -1.1196 -1.7963 9.7994 0.0000 -0.0000 0.0000 -88.4774 -1.6033 20.9648 16.1330 -25.7006 -3.7034 -0.0000 0.0000 -5.5981 10.9270 31.1171 5.6976 -7.1250 0.0000 -0.0000 -23.8228 59.9524 -8.9983 0.0000 -0.0000 0.0000 85.2984 2.8386 9.9745 -12.5229 20.5842 -2.2828 0.0000 -0.0000 -8.5701 -21.8283 12.3587 -4.9000 7.1250 -0.0000 -0.0000 3.7536 -16.7174 2.5207
-4.0667 18.1144 -7.5493 -5.7265 4.6969 7.1238 0.0000 0.0000 0.0000 -9.3572 -2.7677 -10.3142 1.6803 8.1658 23.2187 0.6639 0.1208 -15.4428 0.5749 -4.8557 -13.4973 0.0000 0.0000 0.0000 25.8742 5.4491 -9.1847 -1.3345 -7.3149 20.6518 -0.5605 -1.3270 -14.6846 -0.1391 -2.4037 6.6228 -0.7607 0.2907 -5.6418 4.4120 0.3217 -0.6524 5.0277 0.1364 2.4635 -0.8133 -2.8377 -21.6692 -2.2880 -3.1053 19.7929 -1.1235 -1.7757 9.8357 0.0000 -0.0000 0.0000 -88.4985 -1.4470 21.0904 16.1567 -25.7326 -3.7137 -0.0000 0.0000 -5.9601 11.5685 31.1154 6.0383 -7.1250 0.0000 -0.0000 -23.1551 60.1004 -8.8116 0.0000 -0.0000 0.0000 85.2329 2.6938 10.2879 -12.6178 20.7247 -2.3163 0.0000 -0.0000 -8.9259 -21.7154 12.3518 -4.8695 7.1250 -0.0000 -0.0000 3.8317 -16.7356 2.5719
-4.0760 18.1153 -7.5473 -5.7381 4.8564 7.0474 0.0000 0.0000 0.0000 -9.2986 -2.7690 -10.2586 1.6805 8.1662 23.2202 0.6646 0.0134 -15.4123 0.5896 -4.9163 -13.6700 0.0000 0.0000 0.0000 25.9508 5.4182 -9.0804 -1.3341 -7.3138 20.6483 -0.5663 -1.4351 -14.8067 -0.1543 -2.5311 6.9759 -0.7904 0.2583 -5.5221 4.4479 0.2817 -0.6612 5.0776 0.1172 2.3907 -0.8754 -2.7883 -21.7498 -2.2532 -3.0224 19.8812 -1.0921 -1.7382 9.8844 -0.0000 0.0000 0.0000 -88.5723 -1.3949 20.9268 16.1759 -25.7586 -3.7221 -0.0000 0.0000 -5.7867 11.4086 31.4184 6.0049 -7.1250 0.0000 -0.0000 -23.5749 60.3380 -9.1166 -0.0000 0.0000 0.0000 85.1550 2.6340 10.5442 -12.6881 20.8286 -2.3412 0.0000 -0.0000 -9.1636 -21.5416 12.3851 -4.8395 7.1250 -0.0000 -0.0000 3.9537 -16.7167 2.6558
-4.0819 18.1155 -7.5475 -5.6680 4.9181 7.0021 0.0000 0.0000 0.0000 -9.3630 -2.8111 -10.1975 1.6801 8.1654 23.2176 0.6614 0.0375 -15.3837 0.5799 -4.8761 -13.5554 0.0000 0.0000 0.0000 25.9052 5.3720 -9.0369 -1.3333 -7.3117 20.6422 -0.5672 -1.4643 -14.8319 -0.1748 -2.6932 7.4256 -0.8254 0.2718 -5.4124 4.4069 0.3046 -0.6591 5.0547 0.1294 2.3292 -0.8529 -2.7430 -21.7988 -2.2342 -2.9707 19.8889 -1.0826 -1.7103 9.8964 -0.0000 -0.0000 0.0000 -88.5644 -1.4127 20.7766 16.1638 -25.7422 -3.7168 -0.0000 0.0000 -5.5741 11.1209 31.6562 5.8901 -7.1250 0.0000 -0.0000 -24.0775 60.4849 -9.4094 -0.0000 -0.0000 0.0000 85.1438 2.5918 10.8411 -12.7956 20.9870 -2.3796 0.0000 -0.0000 -9.4412 -21.5489 12.2608 -4.7937 7.1250 -0.0000 -0.0000 3.9440 -16.8485 2.6379
-4.0860 18.1142 -7.5462 -5.5670 4.9365 6.9821 0.0000 0.0000 0.0000 -9.4647 -2.8409 -10.1479 1.6783 8.1610 23.2042 0.6588 0.0302 -15.3510 0.5669 -4.8220 -13.4016 0.0000 0.0000 0.0000 25.8091 5.3153 -9.0200 -1.3332 -7.3114 20.6412 -0.5625 -1.4774 -14.7790 -0.1639 -2.6082 7.1897 -0.8667 0.3049 -5.3583 4.3309 0.3544 -0.6760 5.0009 0.1553 2.2770 -0.8108 -2.7129 -21.6800 -2.1841 -2.9577 19.8297 -1.0668 -1.6946 9.8540 0.0000 0.0000 0.0000 -88.4755 -1.3746 20.7744 16.0473 -25.5848 -3.6664 -0.0000 0.0000 -5.6299 11.2645 31.1714 5.8860 -7.1250 0.0000 -0.0000 -23.5177 60.0802 -8.9475 0.0000 0.0000 0.0000 85.2095 2.4992 10.9785 -12.9084 21.1529 -2.4201 0.0000 -0.0000 -9.5739 -21.5563 12.1038 -4.7353 7.1250 -0.0000 -0.0000 3.9330 -17.0148 2.6162
